<svg xmlns="http://www.w3.org/2000/svg" viewBox="0 0 768 768" width="300" height="300">
  <!-- Dark background -->
  <rect width="768" height="768" fill="#0a1420"/>
  
  <!-- Building silhouettes -->
  <g fill="none" stroke="#b0b8c1" stroke-width="8" stroke-linecap="round" stroke-linejoin="round">
    <!-- Left building -->
    <path d="M 240 480 L 240 320 Q 240 280 260 260 L 260 260"/>
    <!-- Left-center building -->
    <path d="M 300 480 L 300 260 Q 300 220 320 180 L 320 180"/>
    <!-- Center-left building -->
    <path d="M 360 480 L 360 220 Q 360 160 380 100 L 380 100"/>
    <!-- Center building (tallest) -->
    <path d="M 420 480 L 420 140 Q 420 80 440 40 L 440 40"/>
    <path d="M 460 480 L 460 140 Q 460 80 480 40 L 480 40"/>
    <!-- Center-right building -->
    <path d="M 520 480 L 520 220 Q 520 160 540 100 L 540 100"/>
    <!-- Right-center building -->
    <path d="M 580 480 L 580 280 Q 580 220 600 180 L 600 180"/>
    <!-- Right building -->
    <path d="M 640 480 L 640 340 Q 640 300 660 280 L 660 280"/>
  </g>
  
  <!-- Text -->
  <text x="384" y="580" font-family="Arial, sans-serif" font-size="56" font-weight="600" fill="#b0b8c1" text-anchor="middle">LAGUNA LIFE</text>
  <text x="384" y="630" font-family="Arial, sans-serif" font-size="32" font-weight="300" fill="#7a8a9a" text-anchor="middle" letter-spacing="4">REAL ESTATE</text>
  
  <!-- Decorative line -->
  <line x1="240" y1="650" x2="528" y2="650" stroke="#b0b8c1" stroke-width="2"/>
</svg>
